<mxfile host="app.diagrams.net" modified="2022-02-24T08:14:20.482Z" agent="5.0 (Windows NT 10.0; Win64; x64) AppleWebKit/537.36 (KHTML, like Gecko) Chrome/98.0.4758.102 Safari/537.36" etag="7VG3U3sxPAMEvm-_cCBz" version="16.6.3" type="github">
  <diagram id="R2lEEEUBdFMjLlhIrx00" name="Page-1">
    <mxGraphModel dx="813" dy="421" grid="1" gridSize="10" guides="1" tooltips="1" connect="1" arrows="1" fold="1" page="1" pageScale="1" pageWidth="850" pageHeight="1100" math="0" shadow="0" extFonts="Permanent Marker^https://fonts.googleapis.com/css?family=Permanent+Marker">
      <root>
        <mxCell id="0" />
        <mxCell id="1" parent="0" />
        <mxCell id="-ZdQK04RKXneTx7uQEHR-1" value="&lt;font style=&quot;font-size: 23px&quot;&gt;Utente&lt;/font&gt;" style="rounded=0;whiteSpace=wrap;html=1;" parent="1" vertex="1">
          <mxGeometry x="392.5" y="310" width="95" height="40" as="geometry" />
        </mxCell>
        <mxCell id="-ZdQK04RKXneTx7uQEHR-3" value="Post" style="rounded=0;whiteSpace=wrap;html=1;fontSize=15;" parent="1" vertex="1">
          <mxGeometry x="392.5" y="488.75" width="90" height="40" as="geometry" />
        </mxCell>
        <mxCell id="-ZdQK04RKXneTx7uQEHR-4" value="Tag" style="rounded=0;whiteSpace=wrap;html=1;fontSize=15;" parent="1" vertex="1">
          <mxGeometry x="710" y="488.75" width="80" height="40" as="geometry" />
        </mxCell>
        <mxCell id="-ZdQK04RKXneTx7uQEHR-5" value="Presenta" style="rhombus;whiteSpace=wrap;html=1;fontSize=15;" parent="1" vertex="1">
          <mxGeometry x="560" y="485" width="80" height="50" as="geometry" />
        </mxCell>
        <mxCell id="-ZdQK04RKXneTx7uQEHR-6" value="Segue" style="rhombus;whiteSpace=wrap;html=1;fontSize=15;" parent="1" vertex="1">
          <mxGeometry x="610" y="305" width="80" height="50" as="geometry" />
        </mxCell>
        <mxCell id="-ZdQK04RKXneTx7uQEHR-8" value="Inserito" style="rhombus;whiteSpace=wrap;html=1;fontSize=15;" parent="1" vertex="1">
          <mxGeometry x="85" y="482.5" width="80" height="52.5" as="geometry" />
        </mxCell>
        <mxCell id="-ZdQK04RKXneTx7uQEHR-9" value="Commenti" style="rounded=0;whiteSpace=wrap;html=1;fontSize=15;" parent="1" vertex="1">
          <mxGeometry x="80" y="310" width="90" height="40" as="geometry" />
        </mxCell>
        <mxCell id="-ZdQK04RKXneTx7uQEHR-10" value="Scrive" style="rhombus;whiteSpace=wrap;html=1;fontSize=15;" parent="1" vertex="1">
          <mxGeometry x="240" y="305" width="80" height="50" as="geometry" />
        </mxCell>
        <mxCell id="-ZdQK04RKXneTx7uQEHR-11" value="Interessi" style="rounded=0;whiteSpace=wrap;html=1;fontSize=15;" parent="1" vertex="1">
          <mxGeometry x="75" y="160" width="95" height="40" as="geometry" />
        </mxCell>
        <mxCell id="-ZdQK04RKXneTx7uQEHR-12" value="Possiede" style="rhombus;whiteSpace=wrap;html=1;fontSize=15;" parent="1" vertex="1">
          <mxGeometry x="390" y="150" width="85" height="60" as="geometry" />
        </mxCell>
        <mxCell id="-ZdQK04RKXneTx7uQEHR-14" value="" style="endArrow=none;dashed=1;html=1;dashPattern=1 3;strokeWidth=2;rounded=0;fontSize=15;entryX=0.5;entryY=1;entryDx=0;entryDy=0;exitX=0.427;exitY=-0.071;exitDx=0;exitDy=0;exitPerimeter=0;" parent="1" source="-ZdQK04RKXneTx7uQEHR-1" target="-ZdQK04RKXneTx7uQEHR-12" edge="1">
          <mxGeometry width="50" height="50" relative="1" as="geometry">
            <mxPoint x="410" y="280" as="sourcePoint" />
            <mxPoint x="460" y="230" as="targetPoint" />
          </mxGeometry>
        </mxCell>
        <mxCell id="-ZdQK04RKXneTx7uQEHR-15" value="" style="endArrow=none;dashed=1;html=1;dashPattern=1 3;strokeWidth=2;rounded=0;fontSize=15;entryX=0;entryY=0.5;entryDx=0;entryDy=0;exitX=1;exitY=0.5;exitDx=0;exitDy=0;" parent="1" source="-ZdQK04RKXneTx7uQEHR-11" target="-ZdQK04RKXneTx7uQEHR-12" edge="1">
          <mxGeometry width="50" height="50" relative="1" as="geometry">
            <mxPoint x="190" y="210" as="sourcePoint" />
            <mxPoint x="240" y="160" as="targetPoint" />
          </mxGeometry>
        </mxCell>
        <mxCell id="-ZdQK04RKXneTx7uQEHR-16" value="" style="endArrow=none;dashed=1;html=1;dashPattern=1 3;strokeWidth=2;rounded=0;fontSize=15;exitX=1;exitY=0.5;exitDx=0;exitDy=0;entryX=0;entryY=0.5;entryDx=0;entryDy=0;" parent="1" source="-ZdQK04RKXneTx7uQEHR-10" target="-ZdQK04RKXneTx7uQEHR-1" edge="1">
          <mxGeometry width="50" height="50" relative="1" as="geometry">
            <mxPoint x="340" y="360" as="sourcePoint" />
            <mxPoint x="390" y="310" as="targetPoint" />
          </mxGeometry>
        </mxCell>
        <mxCell id="-ZdQK04RKXneTx7uQEHR-17" value="" style="endArrow=none;dashed=1;html=1;dashPattern=1 3;strokeWidth=2;rounded=0;fontSize=15;entryX=0.5;entryY=1;entryDx=0;entryDy=0;exitX=0.5;exitY=0;exitDx=0;exitDy=0;" parent="1" source="-ZdQK04RKXneTx7uQEHR-8" target="-ZdQK04RKXneTx7uQEHR-9" edge="1">
          <mxGeometry width="50" height="50" relative="1" as="geometry">
            <mxPoint x="110" y="390" as="sourcePoint" />
            <mxPoint x="160" y="340" as="targetPoint" />
          </mxGeometry>
        </mxCell>
        <mxCell id="-ZdQK04RKXneTx7uQEHR-18" value="" style="endArrow=none;dashed=1;html=1;dashPattern=1 3;strokeWidth=2;rounded=0;fontSize=15;exitX=1;exitY=0.5;exitDx=0;exitDy=0;entryX=0;entryY=0.5;entryDx=0;entryDy=0;" parent="1" source="-ZdQK04RKXneTx7uQEHR-8" target="-ZdQK04RKXneTx7uQEHR-3" edge="1">
          <mxGeometry width="50" height="50" relative="1" as="geometry">
            <mxPoint x="190" y="540" as="sourcePoint" />
            <mxPoint x="240" y="490" as="targetPoint" />
          </mxGeometry>
        </mxCell>
        <mxCell id="-ZdQK04RKXneTx7uQEHR-19" value="" style="endArrow=none;dashed=1;html=1;dashPattern=1 3;strokeWidth=2;rounded=0;fontSize=15;exitX=1;exitY=0.5;exitDx=0;exitDy=0;entryX=0;entryY=0.5;entryDx=0;entryDy=0;" parent="1" source="-ZdQK04RKXneTx7uQEHR-3" target="-ZdQK04RKXneTx7uQEHR-5" edge="1">
          <mxGeometry width="50" height="50" relative="1" as="geometry">
            <mxPoint x="490" y="540" as="sourcePoint" />
            <mxPoint x="540" y="490" as="targetPoint" />
          </mxGeometry>
        </mxCell>
        <mxCell id="-ZdQK04RKXneTx7uQEHR-20" value="" style="endArrow=none;dashed=1;html=1;dashPattern=1 3;strokeWidth=2;rounded=0;fontSize=15;exitX=1;exitY=0.5;exitDx=0;exitDy=0;entryX=0;entryY=0.5;entryDx=0;entryDy=0;" parent="1" source="-ZdQK04RKXneTx7uQEHR-1" target="-ZdQK04RKXneTx7uQEHR-6" edge="1">
          <mxGeometry width="50" height="50" relative="1" as="geometry">
            <mxPoint x="480" y="370" as="sourcePoint" />
            <mxPoint x="530" y="320" as="targetPoint" />
          </mxGeometry>
        </mxCell>
        <mxCell id="-ZdQK04RKXneTx7uQEHR-21" value="" style="endArrow=none;dashed=1;html=1;dashPattern=1 3;strokeWidth=2;rounded=0;fontSize=15;entryX=0.5;entryY=0;entryDx=0;entryDy=0;" parent="1" target="-ZdQK04RKXneTx7uQEHR-6" edge="1">
          <mxGeometry width="50" height="50" relative="1" as="geometry">
            <mxPoint x="650" y="250" as="sourcePoint" />
            <mxPoint x="610" y="270" as="targetPoint" />
          </mxGeometry>
        </mxCell>
        <mxCell id="-ZdQK04RKXneTx7uQEHR-22" value="" style="endArrow=none;dashed=1;html=1;dashPattern=1 3;strokeWidth=2;rounded=0;fontSize=15;" parent="1" edge="1">
          <mxGeometry width="50" height="50" relative="1" as="geometry">
            <mxPoint x="480" y="250" as="sourcePoint" />
            <mxPoint x="650" y="250" as="targetPoint" />
          </mxGeometry>
        </mxCell>
        <mxCell id="-ZdQK04RKXneTx7uQEHR-23" value="" style="endArrow=none;dashed=1;html=1;dashPattern=1 3;strokeWidth=2;rounded=0;fontSize=15;exitX=0.922;exitY=-0.041;exitDx=0;exitDy=0;exitPerimeter=0;" parent="1" source="-ZdQK04RKXneTx7uQEHR-1" edge="1">
          <mxGeometry width="50" height="50" relative="1" as="geometry">
            <mxPoint x="460" y="300" as="sourcePoint" />
            <mxPoint x="480" y="250" as="targetPoint" />
          </mxGeometry>
        </mxCell>
        <mxCell id="-ZdQK04RKXneTx7uQEHR-24" value="" style="endArrow=none;html=1;rounded=0;fontSize=15;exitX=1;exitY=0.5;exitDx=0;exitDy=0;entryX=0;entryY=0.5;entryDx=0;entryDy=0;" parent="1" source="-ZdQK04RKXneTx7uQEHR-5" target="-ZdQK04RKXneTx7uQEHR-4" edge="1">
          <mxGeometry width="50" height="50" relative="1" as="geometry">
            <mxPoint x="660" y="540" as="sourcePoint" />
            <mxPoint x="710" y="490" as="targetPoint" />
          </mxGeometry>
        </mxCell>
        <mxCell id="-ZdQK04RKXneTx7uQEHR-25" value="" style="endArrow=none;html=1;rounded=0;fontSize=15;exitX=1;exitY=0.5;exitDx=0;exitDy=0;entryX=0;entryY=0.5;entryDx=0;entryDy=0;" parent="1" source="-ZdQK04RKXneTx7uQEHR-9" target="-ZdQK04RKXneTx7uQEHR-10" edge="1">
          <mxGeometry width="50" height="50" relative="1" as="geometry">
            <mxPoint x="180" y="350" as="sourcePoint" />
            <mxPoint x="230" y="300" as="targetPoint" />
          </mxGeometry>
        </mxCell>
        <mxCell id="-ZdQK04RKXneTx7uQEHR-26" value="" style="endArrow=none;html=1;rounded=0;fontSize=15;entryX=0.5;entryY=1;entryDx=0;entryDy=0;exitX=0;exitY=0;exitDx=0;exitDy=0;" parent="1" source="-ZdQK04RKXneTx7uQEHR-3" target="-ZdQK04RKXneTx7uQEHR-60" edge="1">
          <mxGeometry width="50" height="50" relative="1" as="geometry">
            <mxPoint x="400" y="485" as="sourcePoint" />
            <mxPoint x="363.75" y="435" as="targetPoint" />
          </mxGeometry>
        </mxCell>
        <mxCell id="-ZdQK04RKXneTx7uQEHR-27" value="" style="endArrow=none;dashed=1;html=1;dashPattern=1 3;strokeWidth=2;rounded=0;fontSize=15;entryX=0.933;entryY=0.019;entryDx=0;entryDy=0;exitX=0.5;exitY=0;exitDx=0;exitDy=0;entryPerimeter=0;" parent="1" source="-ZdQK04RKXneTx7uQEHR-60" target="-ZdQK04RKXneTx7uQEHR-43" edge="1">
          <mxGeometry width="50" height="50" relative="1" as="geometry">
            <mxPoint x="363.75" y="400" as="sourcePoint" />
            <mxPoint x="400" y="345" as="targetPoint" />
          </mxGeometry>
        </mxCell>
        <mxCell id="-ZdQK04RKXneTx7uQEHR-29" value="N" style="text;html=1;strokeColor=none;fillColor=none;align=center;verticalAlign=middle;whiteSpace=wrap;rounded=0;fontSize=15;" parent="1" vertex="1">
          <mxGeometry x="640" y="482.5" width="60" height="30" as="geometry" />
        </mxCell>
        <mxCell id="-ZdQK04RKXneTx7uQEHR-30" value="N" style="text;html=1;strokeColor=none;fillColor=none;align=center;verticalAlign=middle;whiteSpace=wrap;rounded=0;fontSize=15;" parent="1" vertex="1">
          <mxGeometry x="500" y="482.5" width="60" height="30" as="geometry" />
        </mxCell>
        <mxCell id="-ZdQK04RKXneTx7uQEHR-31" value="N" style="text;html=1;strokeColor=none;fillColor=none;align=center;verticalAlign=middle;whiteSpace=wrap;rounded=0;fontSize=15;" parent="1" vertex="1">
          <mxGeometry x="70" y="370" width="60" height="30" as="geometry" />
        </mxCell>
        <mxCell id="-ZdQK04RKXneTx7uQEHR-32" value="N" style="text;html=1;strokeColor=none;fillColor=none;align=center;verticalAlign=middle;whiteSpace=wrap;rounded=0;fontSize=15;" parent="1" vertex="1">
          <mxGeometry x="165" y="290" width="60" height="30" as="geometry" />
        </mxCell>
        <mxCell id="-ZdQK04RKXneTx7uQEHR-33" value="N" style="text;html=1;strokeColor=none;fillColor=none;align=center;verticalAlign=middle;whiteSpace=wrap;rounded=0;fontSize=15;" parent="1" vertex="1">
          <mxGeometry x="640" y="260" width="60" height="30" as="geometry" />
        </mxCell>
        <mxCell id="-ZdQK04RKXneTx7uQEHR-34" value="N" style="text;html=1;strokeColor=none;fillColor=none;align=center;verticalAlign=middle;whiteSpace=wrap;rounded=0;fontSize=15;" parent="1" vertex="1">
          <mxGeometry x="542.5" y="330" width="60" height="30" as="geometry" />
        </mxCell>
        <mxCell id="-ZdQK04RKXneTx7uQEHR-35" value="N" style="text;html=1;strokeColor=none;fillColor=none;align=center;verticalAlign=middle;whiteSpace=wrap;rounded=0;fontSize=15;" parent="1" vertex="1">
          <mxGeometry x="200" y="150" width="60" height="30" as="geometry" />
        </mxCell>
        <mxCell id="-ZdQK04RKXneTx7uQEHR-36" value="N" style="text;html=1;strokeColor=none;fillColor=none;align=center;verticalAlign=middle;whiteSpace=wrap;rounded=0;fontSize=15;" parent="1" vertex="1">
          <mxGeometry x="380" y="230" width="60" height="30" as="geometry" />
        </mxCell>
        <mxCell id="-ZdQK04RKXneTx7uQEHR-37" value="1" style="text;html=1;strokeColor=none;fillColor=none;align=center;verticalAlign=middle;whiteSpace=wrap;rounded=0;fontSize=15;" parent="1" vertex="1">
          <mxGeometry x="330" y="290" width="60" height="30" as="geometry" />
        </mxCell>
        <mxCell id="-ZdQK04RKXneTx7uQEHR-38" value="1" style="text;html=1;strokeColor=none;fillColor=none;align=center;verticalAlign=middle;whiteSpace=wrap;rounded=0;fontSize=15;" parent="1" vertex="1">
          <mxGeometry x="270" y="470" width="60" height="30" as="geometry" />
        </mxCell>
        <mxCell id="-ZdQK04RKXneTx7uQEHR-39" value="1" style="text;html=1;strokeColor=none;fillColor=none;align=center;verticalAlign=middle;whiteSpace=wrap;rounded=0;fontSize=15;" parent="1" vertex="1">
          <mxGeometry x="337.5" y="350" width="60" height="30" as="geometry" />
        </mxCell>
        <mxCell id="-ZdQK04RKXneTx7uQEHR-40" value="N" style="text;html=1;strokeColor=none;fillColor=none;align=center;verticalAlign=middle;whiteSpace=wrap;rounded=0;fontSize=15;" parent="1" vertex="1">
          <mxGeometry x="337.5" y="452.5" width="60" height="30" as="geometry" />
        </mxCell>
        <mxCell id="-ZdQK04RKXneTx7uQEHR-43" value="1" style="text;html=1;strokeColor=none;fillColor=none;align=center;verticalAlign=middle;whiteSpace=wrap;rounded=0;fontSize=15;" parent="1" vertex="1">
          <mxGeometry x="337.5" y="350" width="60" height="30" as="geometry" />
        </mxCell>
        <mxCell id="-ZdQK04RKXneTx7uQEHR-46" value="" style="endArrow=none;dashed=1;html=1;dashPattern=1 3;strokeWidth=2;rounded=0;fontSize=9;exitX=0.5;exitY=0;exitDx=0;exitDy=0;" parent="1" source="-ZdQK04RKXneTx7uQEHR-57" edge="1">
          <mxGeometry width="50" height="50" relative="1" as="geometry">
            <mxPoint x="438.125" y="400" as="sourcePoint" />
            <mxPoint x="440" y="350" as="targetPoint" />
          </mxGeometry>
        </mxCell>
        <mxCell id="-ZdQK04RKXneTx7uQEHR-49" value="" style="endArrow=none;dashed=1;html=1;dashPattern=1 3;strokeWidth=2;rounded=0;fontSize=9;entryX=1;entryY=1;entryDx=0;entryDy=0;exitX=0.5;exitY=0;exitDx=0;exitDy=0;" parent="1" source="-ZdQK04RKXneTx7uQEHR-58" target="-ZdQK04RKXneTx7uQEHR-1" edge="1">
          <mxGeometry width="50" height="50" relative="1" as="geometry">
            <mxPoint x="521.25" y="400" as="sourcePoint" />
            <mxPoint x="540" y="350" as="targetPoint" />
          </mxGeometry>
        </mxCell>
        <mxCell id="-ZdQK04RKXneTx7uQEHR-51" value="" style="endArrow=none;dashed=1;html=1;dashPattern=1 3;strokeWidth=2;rounded=0;fontSize=9;entryX=0.5;entryY=1;entryDx=0;entryDy=0;exitX=0.535;exitY=-0.014;exitDx=0;exitDy=0;exitPerimeter=0;" parent="1" source="-ZdQK04RKXneTx7uQEHR-3" target="-ZdQK04RKXneTx7uQEHR-57" edge="1">
          <mxGeometry width="50" height="50" relative="1" as="geometry">
            <mxPoint x="410" y="490" as="sourcePoint" />
            <mxPoint x="438.125" y="435" as="targetPoint" />
          </mxGeometry>
        </mxCell>
        <mxCell id="-ZdQK04RKXneTx7uQEHR-52" value="" style="endArrow=none;dashed=1;html=1;dashPattern=1 3;strokeWidth=2;rounded=0;fontSize=9;entryX=0.5;entryY=1;entryDx=0;entryDy=0;exitX=1;exitY=0;exitDx=0;exitDy=0;" parent="1" source="-ZdQK04RKXneTx7uQEHR-3" target="-ZdQK04RKXneTx7uQEHR-58" edge="1">
          <mxGeometry width="50" height="50" relative="1" as="geometry">
            <mxPoint x="490" y="490" as="sourcePoint" />
            <mxPoint x="521.25" y="435" as="targetPoint" />
          </mxGeometry>
        </mxCell>
        <mxCell id="-ZdQK04RKXneTx7uQEHR-53" value="N" style="text;html=1;strokeColor=none;fillColor=none;align=center;verticalAlign=middle;whiteSpace=wrap;rounded=0;fontSize=15;" parent="1" vertex="1">
          <mxGeometry x="397.5" y="452.5" width="60" height="30" as="geometry" />
        </mxCell>
        <mxCell id="-ZdQK04RKXneTx7uQEHR-54" value="N" style="text;html=1;strokeColor=none;fillColor=none;align=center;verticalAlign=middle;whiteSpace=wrap;rounded=0;fontSize=15;" parent="1" vertex="1">
          <mxGeometry x="457.5" y="440" width="60" height="30" as="geometry" />
        </mxCell>
        <mxCell id="-ZdQK04RKXneTx7uQEHR-55" value="N" style="text;html=1;strokeColor=none;fillColor=none;align=center;verticalAlign=middle;whiteSpace=wrap;rounded=0;fontSize=15;" parent="1" vertex="1">
          <mxGeometry x="397.5" y="355" width="60" height="30" as="geometry" />
        </mxCell>
        <mxCell id="-ZdQK04RKXneTx7uQEHR-56" value="N" style="text;html=1;strokeColor=none;fillColor=none;align=center;verticalAlign=middle;whiteSpace=wrap;rounded=0;fontSize=15;" parent="1" vertex="1">
          <mxGeometry x="457.5" y="355" width="60" height="30" as="geometry" />
        </mxCell>
        <mxCell id="-ZdQK04RKXneTx7uQEHR-57" value="&lt;font style=&quot;font-size: 10px&quot;&gt;Mette like&lt;/font&gt;" style="rhombus;whiteSpace=wrap;html=1;fontSize=15;" parent="1" vertex="1">
          <mxGeometry x="405" y="400" width="70" height="42.5" as="geometry" />
        </mxCell>
        <mxCell id="-ZdQK04RKXneTx7uQEHR-58" value="Salva" style="rhombus;whiteSpace=wrap;html=1;fontSize=15;" parent="1" vertex="1">
          <mxGeometry x="487.5" y="396.25" width="72.5" height="43.75" as="geometry" />
        </mxCell>
        <mxCell id="-ZdQK04RKXneTx7uQEHR-60" value="&lt;font style=&quot;font-size: 12px&quot;&gt;Pubblica&lt;/font&gt;" style="rhombus;whiteSpace=wrap;html=1;fontSize=15;" parent="1" vertex="1">
          <mxGeometry x="327.5" y="396.87" width="70" height="43.13" as="geometry" />
        </mxCell>
        <mxCell id="mq_uLxNyH3rLChRBQ6Im-3" value="" style="endArrow=none;html=1;rounded=0;exitX=0.111;exitY=-0.014;exitDx=0;exitDy=0;exitPerimeter=0;entryX=0.5;entryY=1;entryDx=0;entryDy=0;" edge="1" parent="1" source="-ZdQK04RKXneTx7uQEHR-9" target="mq_uLxNyH3rLChRBQ6Im-5">
          <mxGeometry width="50" height="50" relative="1" as="geometry">
            <mxPoint x="80" y="320" as="sourcePoint" />
            <mxPoint x="92" y="270" as="targetPoint" />
          </mxGeometry>
        </mxCell>
        <mxCell id="mq_uLxNyH3rLChRBQ6Im-5" value="" style="ellipse;whiteSpace=wrap;html=1;aspect=fixed;fillColor=#000000;" vertex="1" parent="1">
          <mxGeometry x="85" y="260" width="10" height="10" as="geometry" />
        </mxCell>
        <mxCell id="mq_uLxNyH3rLChRBQ6Im-6" value="ID" style="text;html=1;strokeColor=none;fillColor=none;align=center;verticalAlign=middle;whiteSpace=wrap;rounded=0;fontSize=8;" vertex="1" parent="1">
          <mxGeometry x="75" y="245" width="30" height="20" as="geometry" />
        </mxCell>
        <mxCell id="mq_uLxNyH3rLChRBQ6Im-9" value="" style="endArrow=none;html=1;rounded=0;exitX=0.111;exitY=-0.014;exitDx=0;exitDy=0;exitPerimeter=0;" edge="1" parent="1">
          <mxGeometry width="50" height="50" relative="1" as="geometry">
            <mxPoint x="114.98999999999995" y="309.99999999999994" as="sourcePoint" />
            <mxPoint x="115" y="280" as="targetPoint" />
          </mxGeometry>
        </mxCell>
        <mxCell id="mq_uLxNyH3rLChRBQ6Im-11" value="TESTO" style="text;html=1;strokeColor=none;fillColor=none;align=center;verticalAlign=middle;whiteSpace=wrap;rounded=0;fontSize=8;" vertex="1" parent="1">
          <mxGeometry x="92.5" y="252.78" width="45" height="24.44" as="geometry" />
        </mxCell>
        <mxCell id="mq_uLxNyH3rLChRBQ6Im-12" value="" style="endArrow=none;html=1;rounded=0;exitX=0.111;exitY=-0.014;exitDx=0;exitDy=0;exitPerimeter=0;entryX=0.5;entryY=1;entryDx=0;entryDy=0;" edge="1" parent="1" target="mq_uLxNyH3rLChRBQ6Im-13">
          <mxGeometry width="50" height="50" relative="1" as="geometry">
            <mxPoint x="144.98999999999995" y="309.99999999999994" as="sourcePoint" />
            <mxPoint x="147" y="270.56" as="targetPoint" />
          </mxGeometry>
        </mxCell>
        <mxCell id="mq_uLxNyH3rLChRBQ6Im-13" value="" style="ellipse;whiteSpace=wrap;html=1;aspect=fixed;fillColor=#FFFFFF;" vertex="1" parent="1">
          <mxGeometry x="140" y="260.56" width="10" height="10" as="geometry" />
        </mxCell>
        <mxCell id="mq_uLxNyH3rLChRBQ6Im-14" value="DATA-ORA" style="text;html=1;strokeColor=none;fillColor=none;align=center;verticalAlign=middle;whiteSpace=wrap;rounded=0;fontSize=8;" vertex="1" parent="1">
          <mxGeometry x="125" y="242.78" width="45" height="24.44" as="geometry" />
        </mxCell>
        <mxCell id="mq_uLxNyH3rLChRBQ6Im-16" value="" style="ellipse;whiteSpace=wrap;html=1;aspect=fixed;fillColor=#FFFFFF;" vertex="1" parent="1">
          <mxGeometry x="110" y="270" width="10" height="10" as="geometry" />
        </mxCell>
        <mxCell id="mq_uLxNyH3rLChRBQ6Im-20" value="" style="endArrow=none;html=1;rounded=0;exitX=0.111;exitY=-0.014;exitDx=0;exitDy=0;exitPerimeter=0;entryX=0.5;entryY=1;entryDx=0;entryDy=0;" edge="1" parent="1" target="mq_uLxNyH3rLChRBQ6Im-21">
          <mxGeometry width="50" height="50" relative="1" as="geometry">
            <mxPoint x="84.98999999999995" y="159.99999999999994" as="sourcePoint" />
            <mxPoint x="87" y="120.56" as="targetPoint" />
          </mxGeometry>
        </mxCell>
        <mxCell id="mq_uLxNyH3rLChRBQ6Im-21" value="" style="ellipse;whiteSpace=wrap;html=1;aspect=fixed;fillColor=#000000;" vertex="1" parent="1">
          <mxGeometry x="80" y="110.56" width="10" height="10" as="geometry" />
        </mxCell>
        <mxCell id="mq_uLxNyH3rLChRBQ6Im-22" value="ID" style="text;html=1;strokeColor=none;fillColor=none;align=center;verticalAlign=middle;whiteSpace=wrap;rounded=0;fontSize=8;" vertex="1" parent="1">
          <mxGeometry x="62.5" y="92.77999999999997" width="45" height="24.44" as="geometry" />
        </mxCell>
        <mxCell id="mq_uLxNyH3rLChRBQ6Im-23" value="" style="endArrow=none;html=1;rounded=0;exitX=0.111;exitY=-0.014;exitDx=0;exitDy=0;exitPerimeter=0;entryX=0.5;entryY=1;entryDx=0;entryDy=0;" edge="1" parent="1" target="mq_uLxNyH3rLChRBQ6Im-24">
          <mxGeometry width="50" height="50" relative="1" as="geometry">
            <mxPoint x="124.98999999999995" y="159.99999999999994" as="sourcePoint" />
            <mxPoint x="127" y="120.56" as="targetPoint" />
          </mxGeometry>
        </mxCell>
        <mxCell id="mq_uLxNyH3rLChRBQ6Im-24" value="" style="ellipse;whiteSpace=wrap;html=1;aspect=fixed;fillColor=#FFFFFF;" vertex="1" parent="1">
          <mxGeometry x="120" y="110.56" width="10" height="10" as="geometry" />
        </mxCell>
        <mxCell id="mq_uLxNyH3rLChRBQ6Im-25" value="INTERESSE" style="text;html=1;strokeColor=none;fillColor=none;align=center;verticalAlign=middle;whiteSpace=wrap;rounded=0;fontSize=8;" vertex="1" parent="1">
          <mxGeometry x="105" y="92.77999999999997" width="45" height="24.44" as="geometry" />
        </mxCell>
        <mxCell id="mq_uLxNyH3rLChRBQ6Im-29" value="" style="endArrow=none;html=1;rounded=0;exitX=0.111;exitY=-0.014;exitDx=0;exitDy=0;exitPerimeter=0;entryX=0.5;entryY=1;entryDx=0;entryDy=0;" edge="1" parent="1" target="mq_uLxNyH3rLChRBQ6Im-30">
          <mxGeometry width="50" height="50" relative="1" as="geometry">
            <mxPoint x="719.99" y="488.7499999999999" as="sourcePoint" />
            <mxPoint x="722" y="449.30999999999995" as="targetPoint" />
          </mxGeometry>
        </mxCell>
        <mxCell id="mq_uLxNyH3rLChRBQ6Im-30" value="" style="ellipse;whiteSpace=wrap;html=1;aspect=fixed;fillColor=#000000;" vertex="1" parent="1">
          <mxGeometry x="715" y="439.30999999999995" width="10" height="10" as="geometry" />
        </mxCell>
        <mxCell id="mq_uLxNyH3rLChRBQ6Im-31" value="ID" style="text;html=1;strokeColor=none;fillColor=none;align=center;verticalAlign=middle;whiteSpace=wrap;rounded=0;fontSize=8;" vertex="1" parent="1">
          <mxGeometry x="697.5" y="421.53" width="45" height="24.44" as="geometry" />
        </mxCell>
        <mxCell id="mq_uLxNyH3rLChRBQ6Im-32" value="" style="endArrow=none;html=1;rounded=0;exitX=0.111;exitY=-0.014;exitDx=0;exitDy=0;exitPerimeter=0;entryX=0.5;entryY=1;entryDx=0;entryDy=0;" edge="1" parent="1" target="mq_uLxNyH3rLChRBQ6Im-33">
          <mxGeometry width="50" height="50" relative="1" as="geometry">
            <mxPoint x="744.99" y="488.60999999999996" as="sourcePoint" />
            <mxPoint x="747" y="449.17" as="targetPoint" />
          </mxGeometry>
        </mxCell>
        <mxCell id="mq_uLxNyH3rLChRBQ6Im-33" value="" style="ellipse;whiteSpace=wrap;html=1;aspect=fixed;fillColor=#FFFFFF;" vertex="1" parent="1">
          <mxGeometry x="740" y="439.17" width="10" height="10" as="geometry" />
        </mxCell>
        <mxCell id="mq_uLxNyH3rLChRBQ6Im-34" value="LINK" style="text;html=1;strokeColor=none;fillColor=none;align=center;verticalAlign=middle;whiteSpace=wrap;rounded=0;fontSize=8;" vertex="1" parent="1">
          <mxGeometry x="725" y="421.39" width="45" height="24.44" as="geometry" />
        </mxCell>
        <mxCell id="mq_uLxNyH3rLChRBQ6Im-35" value="" style="endArrow=none;html=1;rounded=0;exitX=0.111;exitY=-0.014;exitDx=0;exitDy=0;exitPerimeter=0;entryX=0.5;entryY=1;entryDx=0;entryDy=0;" edge="1" parent="1" target="mq_uLxNyH3rLChRBQ6Im-36">
          <mxGeometry width="50" height="50" relative="1" as="geometry">
            <mxPoint x="769.99" y="488.6099999999999" as="sourcePoint" />
            <mxPoint x="772" y="449.17" as="targetPoint" />
          </mxGeometry>
        </mxCell>
        <mxCell id="mq_uLxNyH3rLChRBQ6Im-36" value="" style="ellipse;whiteSpace=wrap;html=1;aspect=fixed;fillColor=#FFFFFF;" vertex="1" parent="1">
          <mxGeometry x="765" y="439.17" width="10" height="10" as="geometry" />
        </mxCell>
        <mxCell id="mq_uLxNyH3rLChRBQ6Im-37" value="TIPO" style="text;html=1;strokeColor=none;fillColor=none;align=center;verticalAlign=middle;whiteSpace=wrap;rounded=0;fontSize=8;" vertex="1" parent="1">
          <mxGeometry x="750" y="421.39" width="45" height="24.44" as="geometry" />
        </mxCell>
        <mxCell id="mq_uLxNyH3rLChRBQ6Im-38" value="" style="endArrow=none;html=1;rounded=0;exitX=0.111;exitY=-0.014;exitDx=0;exitDy=0;exitPerimeter=0;entryX=0.5;entryY=1;entryDx=0;entryDy=0;" edge="1" parent="1">
          <mxGeometry width="50" height="50" relative="1" as="geometry">
            <mxPoint x="392.49" y="568.1899999999999" as="sourcePoint" />
            <mxPoint x="392.5" y="528.75" as="targetPoint" />
          </mxGeometry>
        </mxCell>
        <mxCell id="mq_uLxNyH3rLChRBQ6Im-40" value="ID" style="text;html=1;strokeColor=none;fillColor=none;align=center;verticalAlign=middle;whiteSpace=wrap;rounded=0;fontSize=8;" vertex="1" parent="1">
          <mxGeometry x="367.5" y="572.22" width="50" height="7.78" as="geometry" />
        </mxCell>
        <mxCell id="mq_uLxNyH3rLChRBQ6Im-41" value="" style="ellipse;whiteSpace=wrap;html=1;aspect=fixed;fillColor=#000000;" vertex="1" parent="1">
          <mxGeometry x="387.5" y="562.22" width="10" height="10" as="geometry" />
        </mxCell>
        <mxCell id="mq_uLxNyH3rLChRBQ6Im-42" value="" style="endArrow=none;html=1;rounded=0;exitX=0.111;exitY=-0.014;exitDx=0;exitDy=0;exitPerimeter=0;entryX=0.5;entryY=1;entryDx=0;entryDy=0;" edge="1" parent="1">
          <mxGeometry width="50" height="50" relative="1" as="geometry">
            <mxPoint x="522.49" y="617.7099999999999" as="sourcePoint" />
            <mxPoint x="522.5" y="578.27" as="targetPoint" />
          </mxGeometry>
        </mxCell>
        <mxCell id="mq_uLxNyH3rLChRBQ6Im-43" value="LINK" style="text;html=1;strokeColor=none;fillColor=none;align=center;verticalAlign=middle;whiteSpace=wrap;rounded=0;fontSize=8;" vertex="1" parent="1">
          <mxGeometry x="500" y="621.74" width="45" height="24.44" as="geometry" />
        </mxCell>
        <mxCell id="mq_uLxNyH3rLChRBQ6Im-44" value="" style="ellipse;whiteSpace=wrap;html=1;aspect=fixed;fillColor=#FFFFFF;" vertex="1" parent="1">
          <mxGeometry x="517.5" y="611.74" width="10" height="10" as="geometry" />
        </mxCell>
        <mxCell id="mq_uLxNyH3rLChRBQ6Im-48" value="" style="endArrow=none;html=1;rounded=0;entryX=0.5;entryY=1;entryDx=0;entryDy=0;" edge="1" parent="1">
          <mxGeometry width="50" height="50" relative="1" as="geometry">
            <mxPoint x="410" y="540" as="sourcePoint" />
            <mxPoint x="410" y="528.75" as="targetPoint" />
          </mxGeometry>
        </mxCell>
        <mxCell id="mq_uLxNyH3rLChRBQ6Im-49" value="IMG" style="text;html=1;strokeColor=none;fillColor=none;align=center;verticalAlign=middle;whiteSpace=wrap;rounded=0;fontSize=8;" vertex="1" parent="1">
          <mxGeometry x="390" y="550" width="42.5" height="12.22" as="geometry" />
        </mxCell>
        <mxCell id="mq_uLxNyH3rLChRBQ6Im-50" value="" style="ellipse;whiteSpace=wrap;html=1;aspect=fixed;fillColor=#FFFFFF;" vertex="1" parent="1">
          <mxGeometry x="405" y="540" width="10" height="10" as="geometry" />
        </mxCell>
        <mxCell id="mq_uLxNyH3rLChRBQ6Im-51" value="" style="endArrow=none;html=1;rounded=0;exitX=0.111;exitY=-0.014;exitDx=0;exitDy=0;exitPerimeter=0;entryX=0.5;entryY=1;entryDx=0;entryDy=0;" edge="1" parent="1">
          <mxGeometry width="50" height="50" relative="1" as="geometry">
            <mxPoint x="427.49" y="568.1899999999999" as="sourcePoint" />
            <mxPoint x="427.5" y="528.75" as="targetPoint" />
          </mxGeometry>
        </mxCell>
        <mxCell id="mq_uLxNyH3rLChRBQ6Im-52" value="DESC" style="text;html=1;strokeColor=none;fillColor=none;align=center;verticalAlign=middle;whiteSpace=wrap;rounded=0;fontSize=8;" vertex="1" parent="1">
          <mxGeometry x="405" y="563.89" width="45" height="24.44" as="geometry" />
        </mxCell>
        <mxCell id="mq_uLxNyH3rLChRBQ6Im-53" value="" style="ellipse;whiteSpace=wrap;html=1;aspect=fixed;fillColor=#FFFFFF;" vertex="1" parent="1">
          <mxGeometry x="422.5" y="562.22" width="10" height="10" as="geometry" />
        </mxCell>
        <mxCell id="mq_uLxNyH3rLChRBQ6Im-59" value="" style="endArrow=none;html=1;rounded=0;entryX=0.5;entryY=1;entryDx=0;entryDy=0;" edge="1" parent="1">
          <mxGeometry width="50" height="50" relative="1" as="geometry">
            <mxPoint x="587.5" y="591.25" as="sourcePoint" />
            <mxPoint x="587.5" y="580" as="targetPoint" />
          </mxGeometry>
        </mxCell>
        <mxCell id="mq_uLxNyH3rLChRBQ6Im-60" value="IMG" style="text;html=1;strokeColor=none;fillColor=none;align=center;verticalAlign=middle;whiteSpace=wrap;rounded=0;fontSize=8;" vertex="1" parent="1">
          <mxGeometry x="567.5" y="601.25" width="42.5" height="12.22" as="geometry" />
        </mxCell>
        <mxCell id="mq_uLxNyH3rLChRBQ6Im-61" value="" style="ellipse;whiteSpace=wrap;html=1;aspect=fixed;fillColor=#FFFFFF;" vertex="1" parent="1">
          <mxGeometry x="582.5" y="591.25" width="10" height="10" as="geometry" />
        </mxCell>
        <mxCell id="mq_uLxNyH3rLChRBQ6Im-62" value="" style="endArrow=none;html=1;rounded=0;entryX=0.5;entryY=1;entryDx=0;entryDy=0;" edge="1" parent="1">
          <mxGeometry width="50" height="50" relative="1" as="geometry">
            <mxPoint x="442.5" y="540" as="sourcePoint" />
            <mxPoint x="442.5" y="528.75" as="targetPoint" />
          </mxGeometry>
        </mxCell>
        <mxCell id="mq_uLxNyH3rLChRBQ6Im-63" value="SESSO" style="text;html=1;strokeColor=none;fillColor=none;align=center;verticalAlign=middle;whiteSpace=wrap;rounded=0;fontSize=8;" vertex="1" parent="1">
          <mxGeometry x="422.5" y="550" width="42.5" height="12.22" as="geometry" />
        </mxCell>
        <mxCell id="mq_uLxNyH3rLChRBQ6Im-64" value="" style="ellipse;whiteSpace=wrap;html=1;aspect=fixed;fillColor=#FFFFFF;" vertex="1" parent="1">
          <mxGeometry x="437.5" y="540" width="10" height="10" as="geometry" />
        </mxCell>
        <mxCell id="mq_uLxNyH3rLChRBQ6Im-65" value="" style="endArrow=none;html=1;rounded=0;exitX=0.111;exitY=-0.014;exitDx=0;exitDy=0;exitPerimeter=0;entryX=0.5;entryY=1;entryDx=0;entryDy=0;" edge="1" parent="1">
          <mxGeometry width="50" height="50" relative="1" as="geometry">
            <mxPoint x="454.99" y="568.1899999999998" as="sourcePoint" />
            <mxPoint x="455" y="528.7500000000001" as="targetPoint" />
          </mxGeometry>
        </mxCell>
        <mxCell id="mq_uLxNyH3rLChRBQ6Im-66" value="SITUA" style="text;html=1;strokeColor=none;fillColor=none;align=center;verticalAlign=middle;whiteSpace=wrap;rounded=0;fontSize=8;" vertex="1" parent="1">
          <mxGeometry x="432.5" y="563.89" width="45" height="24.44" as="geometry" />
        </mxCell>
        <mxCell id="mq_uLxNyH3rLChRBQ6Im-67" value="" style="ellipse;whiteSpace=wrap;html=1;aspect=fixed;fillColor=#FFFFFF;" vertex="1" parent="1">
          <mxGeometry x="450" y="562.22" width="10" height="10" as="geometry" />
        </mxCell>
        <mxCell id="mq_uLxNyH3rLChRBQ6Im-70" value="" style="endArrow=none;html=1;rounded=0;entryX=0.5;entryY=1;entryDx=0;entryDy=0;" edge="1" parent="1">
          <mxGeometry width="50" height="50" relative="1" as="geometry">
            <mxPoint x="480" y="540.0000000000001" as="sourcePoint" />
            <mxPoint x="480" y="528.7500000000001" as="targetPoint" />
          </mxGeometry>
        </mxCell>
        <mxCell id="mq_uLxNyH3rLChRBQ6Im-71" value="DATA-ORA" style="text;html=1;strokeColor=none;fillColor=none;align=center;verticalAlign=middle;whiteSpace=wrap;rounded=0;fontSize=8;" vertex="1" parent="1">
          <mxGeometry x="460" y="550" width="42.5" height="12.22" as="geometry" />
        </mxCell>
        <mxCell id="mq_uLxNyH3rLChRBQ6Im-72" value="" style="ellipse;whiteSpace=wrap;html=1;aspect=fixed;fillColor=#FFFFFF;" vertex="1" parent="1">
          <mxGeometry x="475" y="540" width="10" height="10" as="geometry" />
        </mxCell>
        <mxCell id="mq_uLxNyH3rLChRBQ6Im-75" value="" style="endArrow=none;html=1;rounded=0;entryX=0;entryY=1;entryDx=0;entryDy=0;startArrow=none;" edge="1" parent="1" source="mq_uLxNyH3rLChRBQ6Im-77" target="-ZdQK04RKXneTx7uQEHR-3">
          <mxGeometry width="50" height="50" relative="1" as="geometry">
            <mxPoint x="374" y="529" as="sourcePoint" />
            <mxPoint x="376.75" y="545.27" as="targetPoint" />
          </mxGeometry>
        </mxCell>
        <mxCell id="mq_uLxNyH3rLChRBQ6Im-76" value="COLORI" style="text;html=1;strokeColor=none;fillColor=none;align=center;verticalAlign=middle;whiteSpace=wrap;rounded=0;fontSize=8;" vertex="1" parent="1">
          <mxGeometry x="327.5" y="521.89" width="42.5" height="12.22" as="geometry" />
        </mxCell>
        <mxCell id="mq_uLxNyH3rLChRBQ6Im-77" value="" style="ellipse;whiteSpace=wrap;html=1;aspect=fixed;fillColor=#FFFFFF;" vertex="1" parent="1">
          <mxGeometry x="367.5" y="524.11" width="10" height="10" as="geometry" />
        </mxCell>
        <mxCell id="mq_uLxNyH3rLChRBQ6Im-82" value="PUBBLICATO" style="text;html=1;strokeColor=none;fillColor=none;align=center;verticalAlign=middle;whiteSpace=wrap;rounded=0;fontSize=8;" vertex="1" parent="1">
          <mxGeometry x="508.75" y="521.89" width="42.5" height="12.22" as="geometry" />
        </mxCell>
        <mxCell id="mq_uLxNyH3rLChRBQ6Im-83" value="" style="ellipse;whiteSpace=wrap;html=1;aspect=fixed;fillColor=#FFFFFF;" vertex="1" parent="1">
          <mxGeometry x="495" y="523" width="10" height="10" as="geometry" />
        </mxCell>
        <mxCell id="mq_uLxNyH3rLChRBQ6Im-85" value="" style="endArrow=none;html=1;rounded=0;entryX=0;entryY=0.5;entryDx=0;entryDy=0;startArrow=none;" edge="1" parent="1" target="mq_uLxNyH3rLChRBQ6Im-83">
          <mxGeometry width="50" height="50" relative="1" as="geometry">
            <mxPoint x="482.49966201372183" y="528.1518643951894" as="sourcePoint" />
            <mxPoint x="497.5" y="527.85" as="targetPoint" />
          </mxGeometry>
        </mxCell>
      </root>
    </mxGraphModel>
  </diagram>
</mxfile>
